# A stone arch: two pillars and a half-round lintel, 1 m wide. Made by a
# script for the examples; no rights reserved.
v -0.4500 0.0000 -0.0900
v -0.3100 0.0000 -0.0900
v -0.4500 0.5500 -0.0900
v -0.3100 0.5500 -0.0900
v -0.4500 0.0000 0.0900
v -0.3100 0.0000 0.0900
v -0.4500 0.5500 0.0900
v -0.3100 0.5500 0.0900
v 0.3100 0.0000 -0.0900
v 0.4500 0.0000 -0.0900
v 0.3100 0.5500 -0.0900
v 0.4500 0.5500 -0.0900
v 0.3100 0.0000 0.0900
v 0.4500 0.0000 0.0900
v 0.3100 0.5500 0.0900
v 0.4500 0.5500 0.0900
v 0.3100 0.5500 -0.0900
v 0.3100 0.5500 0.0900
v 0.4500 0.5500 -0.0900
v 0.4500 0.5500 0.0900
v 0.3073 0.5905 -0.0900
v 0.3073 0.5905 0.0900
v 0.4462 0.6087 -0.0900
v 0.4462 0.6087 0.0900
v 0.2994 0.6302 -0.0900
v 0.2994 0.6302 0.0900
v 0.4347 0.6665 -0.0900
v 0.4347 0.6665 0.0900
v 0.2864 0.6686 -0.0900
v 0.2864 0.6686 0.0900
v 0.4157 0.7222 -0.0900
v 0.4157 0.7222 0.0900
v 0.2685 0.7050 -0.0900
v 0.2685 0.7050 0.0900
v 0.3897 0.7750 -0.0900
v 0.3897 0.7750 0.0900
v 0.2459 0.7387 -0.0900
v 0.2459 0.7387 0.0900
v 0.3570 0.8239 -0.0900
v 0.3570 0.8239 0.0900
v 0.2192 0.7692 -0.0900
v 0.2192 0.7692 0.0900
v 0.3182 0.8682 -0.0900
v 0.3182 0.8682 0.0900
v 0.1887 0.7959 -0.0900
v 0.1887 0.7959 0.0900
v 0.2739 0.9070 -0.0900
v 0.2739 0.9070 0.0900
v 0.1550 0.8185 -0.0900
v 0.1550 0.8185 0.0900
v 0.2250 0.9397 -0.0900
v 0.2250 0.9397 0.0900
v 0.1186 0.8364 -0.0900
v 0.1186 0.8364 0.0900
v 0.1722 0.9657 -0.0900
v 0.1722 0.9657 0.0900
v 0.0802 0.8494 -0.0900
v 0.0802 0.8494 0.0900
v 0.1165 0.9847 -0.0900
v 0.1165 0.9847 0.0900
v 0.0405 0.8573 -0.0900
v 0.0405 0.8573 0.0900
v 0.0587 0.9962 -0.0900
v 0.0587 0.9962 0.0900
v 0.0000 0.8600 -0.0900
v 0.0000 0.8600 0.0900
v 0.0000 1.0000 -0.0900
v 0.0000 1.0000 0.0900
v -0.0405 0.8573 -0.0900
v -0.0405 0.8573 0.0900
v -0.0587 0.9962 -0.0900
v -0.0587 0.9962 0.0900
v -0.0802 0.8494 -0.0900
v -0.0802 0.8494 0.0900
v -0.1165 0.9847 -0.0900
v -0.1165 0.9847 0.0900
v -0.1186 0.8364 -0.0900
v -0.1186 0.8364 0.0900
v -0.1722 0.9657 -0.0900
v -0.1722 0.9657 0.0900
v -0.1550 0.8185 -0.0900
v -0.1550 0.8185 0.0900
v -0.2250 0.9397 -0.0900
v -0.2250 0.9397 0.0900
v -0.1887 0.7959 -0.0900
v -0.1887 0.7959 0.0900
v -0.2739 0.9070 -0.0900
v -0.2739 0.9070 0.0900
v -0.2192 0.7692 -0.0900
v -0.2192 0.7692 0.0900
v -0.3182 0.8682 -0.0900
v -0.3182 0.8682 0.0900
v -0.2459 0.7387 -0.0900
v -0.2459 0.7387 0.0900
v -0.3570 0.8239 -0.0900
v -0.3570 0.8239 0.0900
v -0.2685 0.7050 -0.0900
v -0.2685 0.7050 0.0900
v -0.3897 0.7750 -0.0900
v -0.3897 0.7750 0.0900
v -0.2864 0.6686 -0.0900
v -0.2864 0.6686 0.0900
v -0.4157 0.7222 -0.0900
v -0.4157 0.7222 0.0900
v -0.2994 0.6302 -0.0900
v -0.2994 0.6302 0.0900
v -0.4347 0.6665 -0.0900
v -0.4347 0.6665 0.0900
v -0.3073 0.5905 -0.0900
v -0.3073 0.5905 0.0900
v -0.4462 0.6087 -0.0900
v -0.4462 0.6087 0.0900
v -0.3100 0.5500 -0.0900
v -0.3100 0.5500 0.0900
v -0.4500 0.5500 -0.0900
v -0.4500 0.5500 0.0900
f 1 3 4 2
f 5 6 8 7
f 1 2 6 5
f 3 7 8 4
f 1 5 7 3
f 2 4 8 6
f 9 11 12 10
f 13 14 16 15
f 9 10 14 13
f 11 15 16 12
f 9 13 15 11
f 10 12 16 14
f 17 18 22 21
f 19 23 24 20
f 17 21 23 19
f 18 20 24 22
f 21 22 26 25
f 23 27 28 24
f 21 25 27 23
f 22 24 28 26
f 25 26 30 29
f 27 31 32 28
f 25 29 31 27
f 26 28 32 30
f 29 30 34 33
f 31 35 36 32
f 29 33 35 31
f 30 32 36 34
f 33 34 38 37
f 35 39 40 36
f 33 37 39 35
f 34 36 40 38
f 37 38 42 41
f 39 43 44 40
f 37 41 43 39
f 38 40 44 42
f 41 42 46 45
f 43 47 48 44
f 41 45 47 43
f 42 44 48 46
f 45 46 50 49
f 47 51 52 48
f 45 49 51 47
f 46 48 52 50
f 49 50 54 53
f 51 55 56 52
f 49 53 55 51
f 50 52 56 54
f 53 54 58 57
f 55 59 60 56
f 53 57 59 55
f 54 56 60 58
f 57 58 62 61
f 59 63 64 60
f 57 61 63 59
f 58 60 64 62
f 61 62 66 65
f 63 67 68 64
f 61 65 67 63
f 62 64 68 66
f 65 66 70 69
f 67 71 72 68
f 65 69 71 67
f 66 68 72 70
f 69 70 74 73
f 71 75 76 72
f 69 73 75 71
f 70 72 76 74
f 73 74 78 77
f 75 79 80 76
f 73 77 79 75
f 74 76 80 78
f 77 78 82 81
f 79 83 84 80
f 77 81 83 79
f 78 80 84 82
f 81 82 86 85
f 83 87 88 84
f 81 85 87 83
f 82 84 88 86
f 85 86 90 89
f 87 91 92 88
f 85 89 91 87
f 86 88 92 90
f 89 90 94 93
f 91 95 96 92
f 89 93 95 91
f 90 92 96 94
f 93 94 98 97
f 95 99 100 96
f 93 97 99 95
f 94 96 100 98
f 97 98 102 101
f 99 103 104 100
f 97 101 103 99
f 98 100 104 102
f 101 102 106 105
f 103 107 108 104
f 101 105 107 103
f 102 104 108 106
f 105 106 110 109
f 107 111 112 108
f 105 109 111 107
f 106 108 112 110
f 109 110 114 113
f 111 115 116 112
f 109 113 115 111
f 110 112 116 114
f 17 19 20 18
f 113 114 116 115
