#usda 1.0
(
    defaultPrim = "Cameras"
    endTimeCode = 1072
    framesPerSecond = 24
    metersPerUnit = 0.01
    startTimeCode = 1001
    timeCodesPerSecond = 24
    upAxis = "Z"
)

def Xform "Cameras"
{
    def Camera "plate"
    {
        float2 clippingRange = (1, 100000)
        float focalLength = 24
        float horizontalAperture = 24.89
        float verticalAperture = 14
        float3 xformOp:rotateXYZ.timeSamples = {
            1001: (84.961426, -0.33282003, 5.4270926),
            1002: (84.85074, -0.36294392, 5.4428754),
            1003: (84.7258, -0.38445866, 5.4788337),
            1004: (84.60029, -0.39685392, 5.5316415),
            1005: (84.486115, -0.39983568, 5.596776),
            1006: (84.39212, -0.39333323, 5.6687994),
            1007: (84.32347, -0.37750074, 5.741736),
            1008: (84.28167, -0.35271385, 5.809574),
            1009: (84.265015, -0.31956047, 5.8668556),
            1010: (84.26952, -0.27882698, 5.909315),
            1011: (84.28997, -0.23147964, 5.9344525),
            1012: (84.32112, -0.17864154, 5.9419374),
            1013: (84.358826, -0.121566, 5.933719),
            1014: (84.40088, -0.06160687, 5.913774),
            1015: (84.44738, -0.00018640512, 5.8874636),
            1016: (84.50046, 0.06123848, 5.8605785),
            1017: (84.56332, 0.12121077, 5.8381968),
            1018: (84.63873, 0.1783079, 5.823563),
            1019: (84.727234, 0.23117551, 5.817205),
            1020: (84.82564, 0.27855957, 5.8165016),
            1021: (84.92622, 0.3193361, 5.815839),
            1022: (85.017136, 0.35253787, 5.807391),
            1023: (85.084114, 0.37737733, 5.7824535),
            1024: (85.11329, 0.39326528, 5.7331066),
            1025: (85.094536, 0.39982483, 5.6539283),
            1026: (85.02449, 0.39690042, 5.54341),
            1027: (84.908424, 0.38456142, 5.404773),
            1028: (84.76018, 0.36310047, 5.2459693),
            1029: (84.60005, 0.33302668, 5.0787926),
            1030: (84.45094, 0.2950534, 4.9172044),
            1031: (84.33358, 0.25008133, 4.7751274),
            1032: (84.26199, 0.19917725, 4.6640887),
            1033: (84.24058, 0.14354864, 4.5911508),
            1034: (84.26346, 0.084515, 4.5575356),
            1035: (84.31646, 0.023476634, 4.558243),
            1036: (84.38131, -0.0381186, 4.5827823),
            1037: (84.44084, -0.09880965, 4.616935),
            1038: (84.48381, -0.1571569, 4.645256),
            1039: (84.50796, -0.21177635, 4.653869),
            1040: (84.52033, -0.2613724, 4.6330314),
            1041: (84.53474, -0.3047686, 4.5789824),
            1042: (84.56694, -0.34093556, 4.4947),
            1043: (84.62904, -0.36901546, 4.3893948),
            1044: (84.724686, -0.38834217, 4.276806),
            1045: (84.84646, -0.3984573, 4.1725993),
            1046: (84.9766, -0.39912087, 4.0913467),
            1047: (85.0908, -0.39031717, 4.0436535),
            1048: (85.16419, -0.37225503, 4.033998),
            1049: (85.17798, -0.34536287, 4.0597076),
            1050: (85.12472, -0.3102786, 4.111287),
            1051: (85.01086, -0.26783442, 4.1740627),
            1052: (84.855606, -0.21903712, 4.2308273),
            1053: (84.68654, -0.16504419, 4.265003),
            1054: (84.53294, -0.10713635, 4.263704),
            1055: (84.41887, -0.0466872, 4.220122),
            1056: (84.35764, 0.014869379, 4.1347733),
            1057: (84.349434, 0.07607325, 4.0153737),
            1058: (84.38239, 0.13547264, 3.8753638),
            1059: (84.436905, 0.19165859, 3.73138),
            1060: (84.49178, 0.24329832, 3.6001647),
            1061: (84.53051, 0.28916693, 3.4955118),
            1062: (84.54568, 0.3281764, 3.4258358),
            1063: (84.540565, 0.35940146, 3.3928206),
            1064: (84.52737, 0.38210136, 3.3913798),
            1065: (84.52282, 0.3957377, 3.4109092),
            1066: (84.54252, 0.39998704, 3.4375522),
            1067: (84.59572, 0.39474854, 3.457011),
            1068: (84.68212, 0.38014647, 3.4573483),
            1069: (84.79143, 0.3565272, 3.4312444),
            1070: (84.90581, 0.324451, 3.3772967),
            1071: (85.0045, 0.2846787, 3.3001564),
            1072: (85.06904, 0.23815376, 3.2095263),
        }
        double3 xformOp:translate.timeSamples = {
            1001: (59.895555327317304, -560, 159.448310897406),
            1002: (59.980455919595514, -559.9115701948249, 159.44484466626196),
            1003: (59.94333377120745, -559.6496335681217, 159.40457247668317),
            1004: (59.82215441025858, -559.2192193031228, 159.38185385333136),
            1005: (59.66638825602553, -558.6253565830611, 159.43131661627382),
            1006: (59.52453071399431, -557.8730745911693, 159.58549931070885),
            1007: (59.4318435490249, -556.96740251068, 159.83917298983144),
            1008: (59.40107344037748, -555.913369524826, 160.14586089753547),
            1009: (59.41825135458932, -554.7160048168399, 160.4281054311909),
            1010: (59.44456254288514, -553.3803375699545, 160.5985251757051),
            1011: (59.42394433572059, -551.9113969674024, 160.5851324276684),
            1012: (59.29480799417478, -550.3142121924166, 160.3529127529549),
            1013: (59.003366734071165, -548.5938124282293, 159.91478797140118),
            1014: (58.515684348843756, -546.7552268580736, 159.32843497683),
            1015: (57.825818454309704, -544.803484665182, 158.67993065577446),
            1016: (56.95826361628983, -542.7436150327875, 158.05937977265432),
            1017: (55.96412244624863, -540.5806471441224, 157.5362010662539),
            1018: (54.91178184425021, -538.3196101824196, 157.14178302336973),
            1019: (53.8740540558484, -535.9655333309119, 156.86476887364037),
            1020: (52.914501356654796, -533.5234457728317, 156.66009374151056),
            1021: (52.07583423832203, -530.9983766914121, 156.46842615114716),
            1022: (51.372819013483436, -528.3953552698855, 156.23931825563488),
            1023: (50.7911506967322, -525.7194106914847, 155.9502326488594),
            1024: (50.29245407632572, -522.9755721394424, 155.61505344183252),
            1025: (49.82425120103398, -520.1688687969914, 155.2792284795884),
            1026: (49.33266494473267, -517.3043298473643, 155.00316532197834),
            1027: (48.7750478672651, -514.3869844737937, 154.839447163211),
            1028: (48.129758905523374, -511.42186185951255, 154.81155128329783),
            1029: (47.400949486165466, -508.41399118775337, 154.9013438161404),
            1030: (46.61732555346011, -505.36840164174885, 155.04981762965477),
            1031: (45.82518145655298, -502.29012240473185, 155.17124617791055),
            1032: (45.07726549432779, -499.184182659935, 155.17654385033453),
            1033: (44.419959356182886, -496.05561159059096, 154.99858246692966),
            1034: (43.88163329343534, -492.9094383799324, 154.61150891667228),
            1035: (43.46479243146115, -489.7506922111921, 154.03797549857018),
            1036: (43.14381038920812, -486.5844022676028, 153.34203047119232),
            1037: (42.86883233316257, -483.4155977323971, 152.60997875111246),
            1038: (42.5750848712665, -480.2493077888078, 151.92533240921506),
            1039: (42.19564752153784, -477.09056162006755, 151.3457938390629),
            1040: (41.67497751343466, -473.944388409409, 150.88946463495597),
            1041: (40.98030287058801, -470.81581734006494, 150.53440161226663),
            1042: (40.108447137447826, -467.7098775952681, 150.23125471132494),
            1043: (39.086625863078375, -464.6315983582511, 149.9244531033438),
            1044: (37.967048266649776, -461.58600881224663, 149.57464798425016),
            1045: (36.816486766578116, -458.57813814048745, 149.17477045635863),
            1046: (35.70305383538413, -455.61301552620625, 148.7542301131934),
            1047: (34.68301644110767, -452.6956701526357, 148.3697510380513),
            1048: (33.79045534664568, -449.83113120300857, 148.08581370345522),
            1049: (33.03194542987315, -447.0244278605575, 147.95117641204868),
            1050: (32.38733184141433, -444.28058930851523, 147.97933629830663),
            1051: (31.816345297479092, -441.60464473011444, 148.13959699356195),
            1052: (31.26952809869129, -439.00162330858785, 148.36201980345146),
            1053: (30.70100736463031, -436.4765542271682, 148.55504806758856),
            1054: (30.080256838854762, -434.03446666908803, 148.6304706311867),
            1055: (29.4002191309421, -431.6803898175803, 148.52797430799552),
            1056: (28.679965788751737, -429.41935285587755, 148.23161660444373),
            1057: (27.9612772310703, -427.25638496721245, 147.77310633760828),
            1058: (27.299865448075284, -425.1965153348179, 147.22098343868853),
            1059: (26.753146897119905, -423.2447731419263, 146.659276789104),
            1060: (26.367242569714914, -421.40618757177054, 146.16253535907146),
            1061: (26.166068468016157, -419.6857878075834, 145.7752004563836),
            1062: (26.1449413580288, -418.08860303259746, 145.50177426963643),
            1063: (26.270156315789812, -416.6196624300454, 145.31064295433853),
            1064: (26.484704341967756, -415.28399518316, 145.14991029896058),
            1065: (26.71897002524813, -414.08663047517393, 144.96966273547227),
            1066: (26.904169592223603, -413.0325974893199, 144.74300304560398),
            1067: (26.98569345698612, -412.1269254088307, 144.4786369869451),
            1068: (26.93353432084181, -411.37464341693885, 144.2206249640466),
            1069: (26.747608458666537, -410.7807806968771, 144.0351918096267),
            1070: (26.456878050734435, -410.3503664318783, 143.9888181102977),
            1071: (26.11251734836132, -410.088429805175, 144.12479545176626),
            1072: (25.776645225983096, -409.99999999999994, 144.44604144797347),
        }
        uniform token[] xformOpOrder = ["xformOp:translate", "xformOp:rotateXYZ"]
    }
}

