#usda 1.0
(
    defaultPrim = "World"
    metersPerUnit = 1
    upAxis = "Y"
)

def Xform "World"
{
    def Mesh "drop"
    {
        int[] cornerIndices = [7]
        float[] cornerSharpnesses = [10]
        int[] faceVertexCounts = [4, 4, 4, 4, 4, 4]
        int[] faceVertexIndices = [0, 2, 3, 1, 4, 5, 7, 6, 0, 1, 5, 4, 2, 6, 7, 3, 0, 4, 6, 2, 1, 3, 7, 5]
        point3f[] points = [(-1.35, 0.03, -0.2), (-0.75, 0.03, -0.2), (-1.35, 0.63, -0.2), (-0.75, 0.63, -0.2), (-1.35, 0.03, 0.4), (-0.75, 0.03, 0.4), (-1.35, 0.63, 0.4), (-0.75, 0.63, 0.4)]
        color3f[] primvars:displayColor = [(0.75, 0.12, 0.08)] (
            interpolation = "constant"
        )
        uniform token subdivisionScheme = "catmullClark"
    }

    def Mesh "soap"
    {
        int[] creaseIndices = [0, 1, 0, 2, 0, 4, 1, 3, 1, 5, 2, 3, 2, 6, 3, 7, 4, 5, 4, 6, 5, 7, 6, 7]
        int[] creaseLengths = [2, 2, 2, 2, 2, 2, 2, 2, 2, 2, 2, 2]
        float[] creaseSharpnesses = [1.5, 1.5, 1.5, 1.5, 1.5, 1.5, 1.5, 1.5, 1.5, 1.5, 1.5, 1.5]
        int[] faceVertexCounts = [4, 4, 4, 4, 4, 4]
        int[] faceVertexIndices = [0, 2, 3, 1, 4, 5, 7, 6, 0, 1, 5, 4, 2, 6, 7, 3, 0, 4, 6, 2, 1, 3, 7, 5]
        point3f[] points = [(-0.4, 0, -0.25), (0.4, 0, -0.25), (-0.4, 0.34, -0.25), (0.4, 0.34, -0.25), (-0.4, 0, 0.25), (0.4, 0, 0.25), (-0.4, 0.34, 0.25), (0.4, 0.34, 0.25)]
        color3f[] primvars:displayColor = [(0.85, 0.82, 0.62)] (
            interpolation = "constant"
        )
        uniform token subdivisionScheme = "catmullClark"
    }

    def Mesh "tin"
    {
        int[] creaseIndices = [24, 25, 26, 27, 28, 29, 30, 31, 32, 33, 34, 35, 24, 0, 1, 2, 3, 4, 5, 6, 7, 8, 9, 10, 11, 0]
        int[] creaseLengths = [13, 13]
        float[] creaseSharpnesses = [10, 1]
        int[] faceVertexCounts = [12, 12, 4, 4, 4, 4, 4, 4, 4, 4, 4, 4, 4, 4, 4, 4, 4, 4, 4, 4, 4, 4, 4, 4, 4, 4]
        int[] faceVertexIndices = [0, 1, 2, 3, 4, 5, 6, 7, 8, 9, 10, 11, 35, 34, 33, 32, 31, 30, 29, 28, 27, 26, 25, 24, 1, 0, 12, 13, 2, 1, 13, 14, 3, 2, 14, 15, 4, 3, 15, 16, 5, 4, 16, 17, 6, 5, 17, 18, 7, 6, 18, 19, 8, 7, 19, 20, 9, 8, 20, 21, 10, 9, 21, 22, 11, 10, 22, 23, 0, 11, 23, 12, 13, 12, 24, 25, 14, 13, 25, 26, 15, 14, 26, 27, 16, 15, 27, 28, 17, 16, 28, 29, 18, 17, 29, 30, 19, 18, 30, 31, 20, 19, 31, 32, 21, 20, 32, 33, 22, 21, 33, 34, 23, 22, 34, 35, 12, 23, 35, 24]
        point3f[] points = [(1.35, 0, -0.05), (1.30981, 0, 0.1), (1.2, 0, 0.20981), (1.05, 0, 0.25), (0.9, 0, 0.20981), (0.79019, 0, 0.1), (0.75, 0, -0.05), (0.79019, 0, -0.2), (0.9, 0, -0.30981), (1.05, 0, -0.35), (1.2, 0, -0.30981), (1.30981, 0, -0.2), (1.35, 0.3, -0.05), (1.30981, 0.3, 0.1), (1.2, 0.3, 0.20981), (1.05, 0.3, 0.25), (0.9, 0.3, 0.20981), (0.79019, 0.3, 0.1), (0.75, 0.3, -0.05), (0.79019, 0.3, -0.2), (0.9, 0.3, -0.30981), (1.05, 0.3, -0.35), (1.2, 0.3, -0.30981), (1.30981, 0.3, -0.2), (1.35, 0.6, -0.05), (1.30981, 0.6, 0.1), (1.2, 0.6, 0.20981), (1.05, 0.6, 0.25), (0.9, 0.6, 0.20981), (0.79019, 0.6, 0.1), (0.75, 0.6, -0.05), (0.79019, 0.6, -0.2), (0.9, 0.6, -0.30981), (1.05, 0.6, -0.35), (1.2, 0.6, -0.30981), (1.30981, 0.6, -0.2)]
        color3f[] primvars:displayColor = [(0.25, 0.42, 0.62)] (
            interpolation = "constant"
        )
        uniform token subdivisionScheme = "catmullClark"
    }
}

